<svg xmlns="http://www.w3.org/2000/svg" viewBox="0 0 64 64" width="64" height="64">
  <g fill="currentColor">
    <!-- hammer -->
    <path d="M44 10c-2 0-4 .8-5.5 2.3l-2.1 2.1 3.2 3.2 1.6-1.6c.9-.9 2.4-.9 3.3 0l1.5 1.5c.9.9.9 2.4 0 3.3l-8.2 8.2-2.2-2.2-3.6 3.6 2.2 2.2-16.3 16.3c-1.2 1.2-1.2 3.1 0 4.2l.3.3c1.2 1.2 3.1 1.2 4.2 0L39.9 37l2.2 2.2 3.6-3.6-2.2-2.2 8.2-8.2c2.7-2.7 2.7-7.2 0-9.9l-1.5-1.5C47.3 10.8 45.7 10 44 10z"/>
    <!-- code brackets -->
    <path d="M18 26l-6 6 6 6 3-3-3-3 3-3-3-3zm28 0l-3 3 3 3-3 3 3 3 6-6-6-6z"/>
  </g>
</svg>
